<svg width="24" height="24" viewBox="0 0 24 24" fill="none" xmlns="http://www.w3.org/2000/svg">
<path d="M3.26049 8.24329V8.23083C3.26048 6.99999 3.64395 5.79673 4.36253 4.77283C5.08111 3.74894 6.1026 2.9503 7.29814 2.47767C8.49367 2.00504 9.80968 1.8796 11.0801 2.11716C12.3506 2.35473 13.5185 2.94467 14.4367 3.81254C15.1591 3.47361 15.966 3.3311 16.7682 3.40077C17.5705 3.47044 18.3368 3.74957 18.9827 4.20733C19.6285 4.66509 20.1286 5.28365 20.4278 5.99467C20.727 6.70569 20.8136 7.48149 20.678 8.23637C20.8774 8.25395 21.0707 8.3104 21.246 8.40218C21.4214 8.49397 21.5749 8.61912 21.6971 8.76983C21.8193 8.92055 21.9075 9.09358 21.9562 9.27814C22.0049 9.4627 22.0131 9.65482 21.9802 9.84251C21.3218 13.6073 19.6934 15.9902 17.0978 16.9926V17.9231C17.0978 18.4739 16.8676 19.0022 16.4579 19.3917C16.0482 19.7812 15.4924 20 14.913 20H9.08674C8.50728 20 7.95156 19.7812 7.54182 19.3917C7.13208 19.0022 6.9019 18.4739 6.9019 17.9231V16.9926C4.3063 15.9902 2.67787 13.6073 2.0195 9.84251C1.98773 9.65981 1.99484 9.4729 2.0404 9.29285C2.08596 9.11279 2.16906 8.94326 2.28477 8.79428C2.40047 8.6453 2.54645 8.51989 2.71404 8.42549C2.88164 8.33109 3.06746 8.2696 3.26049 8.24468V8.24329ZM4.71705 8.23083H6.17362C6.17362 7.31278 6.55726 6.43233 7.24016 5.78316C7.92305 5.134 8.84926 4.76931 9.81502 4.76931C10.7808 4.76931 11.707 5.134 12.3899 5.78316C13.0728 6.43233 13.4564 7.31278 13.4564 8.23083H14.913C14.913 6.94556 14.3759 5.71292 13.4198 4.8041C12.4638 3.89527 11.1671 3.3847 9.81502 3.3847C8.46295 3.3847 7.16627 3.89527 6.21021 4.8041C5.25416 5.71292 4.71705 6.94556 4.71705 8.23083ZM7.63018 8.23083H11.9999C11.9999 7.68 11.7697 7.15173 11.3599 6.76223C10.9502 6.37273 10.3945 6.15392 9.81502 6.15392C9.23556 6.15392 8.67984 6.37273 8.2701 6.76223C7.86036 7.15173 7.63018 7.68 7.63018 8.23083ZM17.6309 8.23083H19.1909C19.3009 7.82164 19.3111 7.39399 19.2209 6.98046C19.1306 6.56693 18.9423 6.17844 18.6702 5.84459C18.3981 5.51074 18.0494 5.24035 17.6507 5.054C17.252 4.86766 16.8138 4.77029 16.3695 4.76931C16.02 4.76931 15.6879 4.82746 15.3791 4.93408C15.6369 5.32731 15.8495 5.751 16.0127 6.19546C16.2901 6.13005 16.5816 6.14351 16.8511 6.23419C17.1205 6.32486 17.356 6.48875 17.5284 6.70552C17.7007 6.92228 17.8023 7.18238 17.8205 7.45354C17.8388 7.72469 17.7728 7.99497 17.6309 8.23083ZM15.6413 17.2308H8.35846V17.9231C8.35846 18.1067 8.43519 18.2828 8.57176 18.4126C8.70834 18.5425 8.89358 18.6154 9.08674 18.6154H14.913C15.1061 18.6154 15.2914 18.5425 15.428 18.4126C15.5645 18.2828 15.6413 18.1067 15.6413 17.9231V17.2308ZM7.84575 15.8462H16.154C18.4641 15.14 19.9265 13.1434 20.544 9.61544H3.45567C4.07325 13.1434 5.53564 15.14 7.84575 15.8462Z" fill="#575757"/>
</svg>
