<svg width="233" height="30" viewBox="0 0 233 30" fill="none" xmlns="http://www.w3.org/2000/svg">
<path d="M16 10C16 4.47715 20.4772 0 26 0H206C211.523 0 216 4.47715 216 10C216 21.0457 207.046 30 196 30H36C24.9543 30 16 21.0457 16 10Z" fill="#CF9CFF"/>
<path d="M31.9054 8L8.95825 9.4845C8.08788 9.54081 7.2478 9.82584 6.52287 10.3108V10.3108C3.4957 12.3359 3.61425 16.8252 6.74408 18.6878L7.79778 19.3148C8.59834 19.7912 9.50298 20.0652 10.4333 20.1131L31.9054 21.218" stroke="#CF9CFF" stroke-width="6"/>
<path d="M201 8L223.947 9.4845C224.817 9.54081 225.657 9.82584 226.382 10.3108V10.3108C229.41 12.3359 229.291 16.8252 226.161 18.6878L225.107 19.3148C224.307 19.7912 223.402 20.0652 222.472 20.1131L201 21.218" stroke="#CF9CFF" stroke-width="6"/>
</svg>
