<svg width="24" height="24" viewBox="0 0 24 24" fill="none" xmlns="http://www.w3.org/2000/svg">
<g filter="url(#filter0_d_541_1098)">
<path d="M12 4L14.6667 8L18 5.33333L16.6667 12H7.33333L6 5.33333L9.33333 8L12 4Z" stroke="#FFEA65" stroke-width="2" stroke-linecap="round" stroke-linejoin="round"/>
<path d="M6.93848 6.9687C7.0217 7.34075 7.06897 7.80492 7.31194 8.12213C7.41153 8.25215 7.5503 8.31861 7.66557 8.42619C7.78207 8.53492 7.89482 8.63892 8.00763 8.75173C8.11623 8.86033 8.23841 8.90892 8.35961 8.99134C8.58093 9.14183 9.00911 9.11032 9.27509 9.11032C9.38635 9.11032 9.49762 9.11032 9.60889 9.11032C9.76489 9.11032 9.82731 8.98437 9.946 8.9335C10.0739 8.87869 10.1414 8.7421 10.2517 8.66084C10.4037 8.54883 10.5399 8.26893 10.6433 8.11222C10.7911 7.88851 10.9458 7.66817 11.0664 7.42148C11.1818 7.18548 11.2976 6.99786 11.4464 6.78527C11.5037 6.70352 11.5249 6.59771 11.5786 6.51261C11.6175 6.4511 11.6691 6.4245 11.691 6.35067C11.7312 6.21506 11.7949 6.01827 11.8893 5.91276C12.0239 5.76232 12.0222 5.87012 12.1107 6.05818C12.2183 6.28676 12.2601 6.52126 12.2991 6.7671C12.3346 6.99065 12.4586 7.17701 12.5883 7.35538C12.6489 7.43874 12.6847 7.55192 12.7519 7.62308C12.8297 7.70545 12.9526 7.72998 13.0361 7.80155C13.159 7.90687 13.2882 8.00615 13.4079 8.11552C13.4779 8.17937 13.5268 8.2036 13.6145 8.23285C13.677 8.25369 13.7067 8.3115 13.7632 8.33035C13.8639 8.36391 13.9607 8.35169 14.0623 8.38157C14.2791 8.44533 14.5792 8.39645 14.8043 8.39645C15.008 8.39645 15.1182 8.23781 15.2967 8.21798C15.4352 8.20259 15.6632 8.01385 15.7429 7.90566C15.8328 7.7836 15.9609 7.68171 16.1131 7.62639C16.197 7.59585 16.1715 7.6035 16.2188 7.52063C16.2286 7.50346 16.379 7.43192 16.3907 7.45783C16.4748 7.64487 16.2477 8.02797 16.1659 8.19154C16.0961 8.33119 16.0213 8.46614 15.9809 8.61788C15.889 8.96244 15.6239 9.2718 15.6239 9.63911C15.6239 9.74688 15.5736 9.82571 15.5628 9.9283C15.5535 10.0163 15.5023 10.188 15.4686 10.2704C15.3994 10.4395 15.4709 10.547 15.3067 10.6405C15.1108 10.752 14.9205 10.81 14.7051 10.8785C14.2357 11.0279 13.73 10.8476 13.2691 10.9743C12.7908 11.1059 12.3109 11.0735 11.8166 11.0735C11.3715 11.0735 10.9265 11.0735 10.4814 11.0735C9.87218 11.0735 9.26297 11.0735 8.65375 11.0735C8.49841 11.0735 8.21441 11.1331 8.07538 11.0437C7.93509 10.9535 8.02001 10.6014 7.96467 10.4538C7.94368 10.3978 7.90277 10.3463 7.89196 10.2869C7.86414 10.1339 8.19821 10.0263 8.29351 9.97622C8.82232 9.69822 9.40439 9.68306 9.97078 9.53831C10.8249 9.32004 11.6852 9.02108 12.5734 9.02108C12.7912 9.02108 12.9061 9.04632 13.0989 9.12519C13.2754 9.19738 13.4382 9.18571 13.4757 9.41437C13.4951 9.53288 13.565 9.68308 13.5715 9.79445C13.5785 9.91333 12.9956 9.85394 12.8924 9.85394C12.7976 9.85394 12.6977 9.84564 12.6032 9.85559C12.5023 9.86621 12.4432 9.94183 12.352 9.9663C12.2764 9.9866 11.8754 10.0359 12.1355 9.92995C12.4262 9.81155 12.7599 9.78354 13.0593 9.67877C13.1803 9.6364 13.3092 9.63479 13.4327 9.60111C13.5812 9.56061 13.7217 9.47927 13.8723 9.45073C13.9751 9.43125 14.0793 9.44056 14.183 9.43751C14.2222 9.43636 14.2604 9.3985 14.2986 9.40942C14.3245 9.4168 14.4271 9.61062 14.4341 9.64572" stroke="#FFEA65" stroke-width="3" stroke-linecap="round"/>
<path d="M15.7734 11.163C15.9266 11.138 16.0657 11.1333 16.2196 11.1333" stroke="#FFEA65" stroke-width="3" stroke-linecap="round"/>
</g>
<defs>
<filter id="filter0_d_541_1098" x="0" y="0" width="24" height="24" filterUnits="userSpaceOnUse" color-interpolation-filters="sRGB">
<feFlood flood-opacity="0" result="BackgroundImageFix"/>
<feColorMatrix in="SourceAlpha" type="matrix" values="0 0 0 0 0 0 0 0 0 0 0 0 0 0 0 0 0 0 127 0" result="hardAlpha"/>
<feOffset dy="4"/>
<feGaussianBlur stdDeviation="2"/>
<feComposite in2="hardAlpha" operator="out"/>
<feColorMatrix type="matrix" values="0 0 0 0 0 0 0 0 0 0 0 0 0 0 0 0 0 0 0.25 0"/>
<feBlend mode="normal" in2="BackgroundImageFix" result="effect1_dropShadow_541_1098"/>
<feBlend mode="normal" in="SourceGraphic" in2="effect1_dropShadow_541_1098" result="shape"/>
</filter>
</defs>
</svg>
