<svg width="20" height="20" viewBox="0 0 20 20" fill="none" xmlns="http://www.w3.org/2000/svg">
<path d="M17.4044 2.60002C17.1082 2.30375 16.7565 2.06874 16.3695 1.9084C15.9824 1.74805 15.5675 1.66553 15.1486 1.66553C14.7296 1.66553 14.3148 1.74805 13.9277 1.9084C13.5407 2.06874 13.189 2.30375 12.8928 2.60002L11.9761 3.51835C11.9302 3.55495 11.8883 3.59629 11.8511 3.64169L2.75109 12.7434C2.63473 12.8594 2.55529 13.0073 2.52275 13.1684L1.68275 17.335C1.65535 17.4697 1.66167 17.609 1.70116 17.7407C1.74065 17.8723 1.81208 17.9921 1.90909 18.0895C2.0061 18.1868 2.12568 18.2586 2.25717 18.2986C2.38867 18.3385 2.528 18.3453 2.66275 18.3184L6.83609 17.485C6.99717 17.4525 7.14503 17.373 7.26109 17.2567L17.4044 7.11335C17.7007 6.81713 17.9357 6.46544 18.096 6.07839C18.2564 5.69133 18.3389 5.27647 18.3389 4.85752C18.3389 4.43856 18.2564 4.02371 18.096 3.63665C17.9357 3.24959 17.7007 2.89791 17.4044 2.60169M12.5028 5.35002L14.6578 7.50502L6.26109 15.9L3.56442 16.44L4.10609 13.7467L12.5028 5.35002ZM15.8361 6.32669L13.6811 4.17002L14.0711 3.78002C14.2119 3.63575 14.3799 3.52086 14.5654 3.44199C14.7509 3.36313 14.9502 3.32186 15.1517 3.32059C15.3533 3.31932 15.5531 3.35806 15.7396 3.43457C15.9261 3.51108 16.0955 3.62384 16.2381 3.76632C16.3807 3.90879 16.4936 4.07815 16.5702 4.26457C16.6469 4.451 16.6858 4.65078 16.6847 4.85235C16.6836 5.05391 16.6424 5.25325 16.5637 5.43881C16.485 5.62437 16.3702 5.79247 16.2261 5.93335L15.8361 6.32669Z" fill="#575757"/>
</svg>
