<svg width="147" height="35" viewBox="0 0 147 35" fill="none" xmlns="http://www.w3.org/2000/svg">
<path d="M17.3968 9.8C14.8301 9.8 12.8634 10.5833 11.4968 12.15C10.1301 13.7167 9.44678 15.9333 9.44678 18.8C9.44678 21.7 10.1968 23.9333 11.6968 25.5C13.2301 27.0667 15.2801 27.85 17.8468 27.85C19.2134 27.85 20.3634 27.6667 21.2968 27.3C22.2634 26.9333 23.1801 26.5167 24.0468 26.05C24.6134 26.5167 25.0468 27.0833 25.3468 27.75C25.6801 28.3833 25.8468 29.1333 25.8468 30C25.8468 31.3667 25.0801 32.5333 23.5468 33.5C22.0468 34.4333 19.7468 34.9 16.6468 34.9C14.4134 34.9 12.3134 34.5833 10.3468 33.95C8.38011 33.3167 6.66344 32.35 5.19678 31.05C3.73011 29.7167 2.56344 28.05 1.69678 26.05C0.863444 24.0167 0.446777 21.6 0.446777 18.8C0.446777 16.2 0.846777 13.9167 1.64678 11.95C2.48011 9.95 3.59678 8.26666 4.99678 6.9C6.43011 5.53333 8.09678 4.5 9.99678 3.8C11.8968 3.1 13.9301 2.75 16.0968 2.75C19.1634 2.75 21.5301 3.25 23.1968 4.25C24.8968 5.25 25.7468 6.53333 25.7468 8.1C25.7468 8.96667 25.5301 9.71667 25.0968 10.35C24.6634 10.9833 24.1634 11.4833 23.5968 11.85C22.7301 11.2833 21.7968 10.8 20.7968 10.4C19.8301 10 18.6968 9.8 17.3968 9.8ZM54.3765 21.85C54.3765 23.9167 54.0598 25.7667 53.4265 27.4C52.7931 29 51.8931 30.35 50.7265 31.45C49.5931 32.55 48.2265 33.3833 46.6265 33.95C45.0265 34.5167 43.2431 34.8 41.2765 34.8C39.3098 34.8 37.5265 34.5 35.9265 33.9C34.3265 33.3 32.9431 32.45 31.7765 31.35C30.6431 30.2167 29.7598 28.85 29.1265 27.25C28.4931 25.65 28.1765 23.85 28.1765 21.85C28.1765 19.8833 28.4931 18.1 29.1265 16.5C29.7598 14.9 30.6431 13.55 31.7765 12.45C32.9431 11.3167 34.3265 10.45 35.9265 9.85C37.5265 9.25 39.3098 8.95 41.2765 8.95C43.2431 8.95 45.0265 9.26666 46.6265 9.9C48.2265 10.5 49.5931 11.3667 50.7265 12.5C51.8931 13.6 52.7931 14.95 53.4265 16.55C54.0598 18.15 54.3765 19.9167 54.3765 21.85ZM36.8765 21.85C36.8765 23.8833 37.2598 25.45 38.0265 26.55C38.8265 27.6167 39.9265 28.15 41.3265 28.15C42.7265 28.15 43.7931 27.6 44.5265 26.5C45.2931 25.4 45.6765 23.85 45.6765 21.85C45.6765 19.85 45.2931 18.3167 44.5265 17.25C43.7598 16.15 42.6765 15.6 41.2765 15.6C39.8765 15.6 38.7931 16.15 38.0265 17.25C37.2598 18.3167 36.8765 19.85 36.8765 21.85ZM83.6733 21.85C83.6733 23.9167 83.3567 25.7667 82.7233 27.4C82.09 29 81.19 30.35 80.0233 31.45C78.89 32.55 77.5233 33.3833 75.9233 33.95C74.3233 34.5167 72.54 34.8 70.5733 34.8C68.6067 34.8 66.8233 34.5 65.2233 33.9C63.6233 33.3 62.24 32.45 61.0733 31.35C59.94 30.2167 59.0567 28.85 58.4233 27.25C57.79 25.65 57.4733 23.85 57.4733 21.85C57.4733 19.8833 57.79 18.1 58.4233 16.5C59.0567 14.9 59.94 13.55 61.0733 12.45C62.24 11.3167 63.6233 10.45 65.2233 9.85C66.8233 9.25 68.6067 8.95 70.5733 8.95C72.54 8.95 74.3233 9.26666 75.9233 9.9C77.5233 10.5 78.89 11.3667 80.0233 12.5C81.19 13.6 82.09 14.95 82.7233 16.55C83.3567 18.15 83.6733 19.9167 83.6733 21.85ZM66.1733 21.85C66.1733 23.8833 66.5567 25.45 67.3233 26.55C68.1233 27.6167 69.2233 28.15 70.6233 28.15C72.0233 28.15 73.09 27.6 73.8233 26.5C74.59 25.4 74.9733 23.85 74.9733 21.85C74.9733 19.85 74.59 18.3167 73.8233 17.25C73.0567 16.15 71.9733 15.6 70.5733 15.6C69.1733 15.6 68.09 16.15 67.3233 17.25C66.5567 18.3167 66.1733 19.85 66.1733 21.85ZM111.57 29.6C111.404 31.1667 110.937 32.3667 110.17 33.2C109.437 34.0333 108.354 34.45 106.92 34.45C105.854 34.45 104.904 34.2 104.07 33.7C103.237 33.1667 102.337 32.2833 101.37 31.05L96.4202 24.85V33.95C96.0535 34.0167 95.5035 34.1 94.7702 34.2C94.0702 34.3333 93.3535 34.4 92.6202 34.4C91.8869 34.4 91.2202 34.35 90.6202 34.25C90.0535 34.15 89.5702 33.95 89.1702 33.65C88.7702 33.35 88.4535 32.95 88.2202 32.45C88.0202 31.9167 87.9202 31.2333 87.9202 30.4V1.45C88.2869 1.35 88.8202 1.25 89.5202 1.15C90.2535 1.01667 90.9869 0.949999 91.7202 0.949999C92.4535 0.949999 93.1035 0.999999 93.6702 1.1C94.2702 1.2 94.7702 1.4 95.1702 1.7C95.5702 2 95.8702 2.41666 96.0702 2.95C96.3035 3.45 96.4202 4.11667 96.4202 4.95V18.15L105.02 9.35C106.754 9.35 108.137 9.73333 109.17 10.5C110.237 11.2667 110.77 12.2333 110.77 13.4C110.77 13.9 110.687 14.3667 110.52 14.8C110.354 15.2 110.087 15.6167 109.72 16.05C109.387 16.4833 108.937 16.95 108.37 17.45C107.837 17.9167 107.204 18.4667 106.47 19.1L103.57 21.6L111.57 29.6ZM124.955 33.8C124.588 33.9 124.005 34 123.205 34.1C122.438 34.2 121.671 34.25 120.905 34.25C120.138 34.25 119.455 34.1833 118.855 34.05C118.288 33.95 117.805 33.75 117.405 33.45C117.005 33.15 116.705 32.7333 116.505 32.2C116.305 31.6667 116.205 30.9667 116.205 30.1V3.7C116.571 3.63333 117.155 3.55 117.955 3.45C118.755 3.31667 119.521 3.25 120.255 3.25C121.021 3.25 121.688 3.31667 122.255 3.45C122.855 3.55 123.355 3.75 123.755 4.05C124.155 4.35 124.455 4.76667 124.655 5.3C124.855 5.83333 124.955 6.53333 124.955 7.4V33.8ZM139.289 25.65C139.289 26.5167 139.556 27.1333 140.089 27.5C140.656 27.8667 141.439 28.05 142.439 28.05C142.939 28.05 143.456 28.0167 143.989 27.95C144.522 27.85 144.989 27.7333 145.389 27.6C145.689 27.9667 145.939 28.3833 146.139 28.85C146.372 29.2833 146.489 29.8167 146.489 30.45C146.489 31.7167 146.006 32.75 145.039 33.55C144.106 34.35 142.439 34.75 140.039 34.75C137.106 34.75 134.839 34.0833 133.239 32.75C131.672 31.4167 130.889 29.25 130.889 26.25V4.85C131.256 4.75 131.772 4.65 132.439 4.55C133.139 4.41666 133.872 4.35 134.639 4.35C136.106 4.35 137.239 4.61666 138.039 5.15C138.872 5.65 139.289 6.73333 139.289 8.4V11.6H145.839C146.039 11.9667 146.222 12.4333 146.389 13C146.589 13.5333 146.689 14.1333 146.689 14.8C146.689 15.9667 146.422 16.8167 145.889 17.35C145.389 17.85 144.706 18.1 143.839 18.1H139.289V25.65Z" fill="#84C3FA"/>
</svg>
