<svg width="233" height="230" viewBox="0 0 233 230" fill="none" xmlns="http://www.w3.org/2000/svg">
<path d="M16.4526 38C16.4526 26.9543 25.4069 18 36.4526 18H196.453C207.498 18 216.453 26.9543 216.453 38C216.453 43.5228 211.975 48 206.453 48H26.4526C20.9298 48 16.4526 43.5228 16.4526 38Z" fill="#6A5ACD"/>
<path d="M96.4526 25L98.7113 16.683C100.274 10.9304 104.554 6.30756 110.169 4.30793V4.30793C114.346 2.82067 118.922 2.90918 123.038 4.55683L123.399 4.70122C129.332 7.07634 133.697 12.2444 135.047 18.4913L136.453 25" stroke="#6A5ACD" stroke-width="6"/>
<path d="M16.4526 68.3636C16.4526 60.4308 22.8835 54 30.8163 54H209.677C213.419 54 216.453 57.0336 216.453 60.7758C216.453 64.2954 213.758 67.2291 210.251 67.5272L32.0328 82.6757C23.6503 83.3882 16.4526 76.7764 16.4526 68.3636Z" fill="#A2E85D"/>
<path d="M16.4526 103.493C16.4526 96.0408 22.4935 90 29.9452 90H202.916C210.392 90 216.453 96.0604 216.453 103.536C216.453 112.063 208.665 118.465 200.299 116.817L118.878 100.773C116.287 100.263 113.62 100.271 111.032 100.796L32.63 116.715C24.27 118.413 16.4526 112.023 16.4526 103.493Z" fill="#FFEA65"/>
<path d="M60.3968 131.8C57.8301 131.8 55.8634 132.583 54.4968 134.15C53.1301 135.717 52.4468 137.933 52.4468 140.8C52.4468 143.7 53.1968 145.933 54.6968 147.5C56.2301 149.067 58.2801 149.85 60.8468 149.85C62.2134 149.85 63.3634 149.667 64.2968 149.3C65.2634 148.933 66.1801 148.517 67.0468 148.05C67.6134 148.517 68.0468 149.083 68.3468 149.75C68.6801 150.383 68.8468 151.133 68.8468 152C68.8468 153.367 68.0801 154.533 66.5468 155.5C65.0468 156.433 62.7468 156.9 59.6468 156.9C57.4134 156.9 55.3134 156.583 53.3468 155.95C51.3801 155.317 49.6634 154.35 48.1968 153.05C46.7301 151.717 45.5634 150.05 44.6968 148.05C43.8634 146.017 43.4468 143.6 43.4468 140.8C43.4468 138.2 43.8468 135.917 44.6468 133.95C45.4801 131.95 46.5968 130.267 47.9968 128.9C49.4301 127.533 51.0968 126.5 52.9968 125.8C54.8968 125.1 56.9301 124.75 59.0968 124.75C62.1634 124.75 64.5301 125.25 66.1968 126.25C67.8968 127.25 68.7468 128.533 68.7468 130.1C68.7468 130.967 68.5301 131.717 68.0968 132.35C67.6634 132.983 67.1634 133.483 66.5968 133.85C65.7301 133.283 64.7968 132.8 63.7968 132.4C62.8301 132 61.6968 131.8 60.3968 131.8ZM97.3765 143.85C97.3765 145.917 97.0598 147.767 96.4265 149.4C95.7931 151 94.8931 152.35 93.7265 153.45C92.5931 154.55 91.2265 155.383 89.6265 155.95C88.0265 156.517 86.2431 156.8 84.2765 156.8C82.3098 156.8 80.5265 156.5 78.9265 155.9C77.3265 155.3 75.9431 154.45 74.7765 153.35C73.6431 152.217 72.7598 150.85 72.1265 149.25C71.4931 147.65 71.1765 145.85 71.1765 143.85C71.1765 141.883 71.4931 140.1 72.1265 138.5C72.7598 136.9 73.6431 135.55 74.7765 134.45C75.9431 133.317 77.3265 132.45 78.9265 131.85C80.5265 131.25 82.3098 130.95 84.2765 130.95C86.2431 130.95 88.0265 131.267 89.6265 131.9C91.2265 132.5 92.5931 133.367 93.7265 134.5C94.8931 135.6 95.7931 136.95 96.4265 138.55C97.0598 140.15 97.3765 141.917 97.3765 143.85ZM79.8765 143.85C79.8765 145.883 80.2598 147.45 81.0265 148.55C81.8265 149.617 82.9265 150.15 84.3265 150.15C85.7265 150.15 86.7931 149.6 87.5265 148.5C88.2931 147.4 88.6765 145.85 88.6765 143.85C88.6765 141.85 88.2931 140.317 87.5265 139.25C86.7598 138.15 85.6765 137.6 84.2765 137.6C82.8765 137.6 81.7931 138.15 81.0265 139.25C80.2598 140.317 79.8765 141.85 79.8765 143.85ZM126.673 143.85C126.673 145.917 126.357 147.767 125.723 149.4C125.09 151 124.19 152.35 123.023 153.45C121.89 154.55 120.523 155.383 118.923 155.95C117.323 156.517 115.54 156.8 113.573 156.8C111.607 156.8 109.823 156.5 108.223 155.9C106.623 155.3 105.24 154.45 104.073 153.35C102.94 152.217 102.057 150.85 101.423 149.25C100.79 147.65 100.473 145.85 100.473 143.85C100.473 141.883 100.79 140.1 101.423 138.5C102.057 136.9 102.94 135.55 104.073 134.45C105.24 133.317 106.623 132.45 108.223 131.85C109.823 131.25 111.607 130.95 113.573 130.95C115.54 130.95 117.323 131.267 118.923 131.9C120.523 132.5 121.89 133.367 123.023 134.5C124.19 135.6 125.09 136.95 125.723 138.55C126.357 140.15 126.673 141.917 126.673 143.85ZM109.173 143.85C109.173 145.883 109.557 147.45 110.323 148.55C111.123 149.617 112.223 150.15 113.623 150.15C115.023 150.15 116.09 149.6 116.823 148.5C117.59 147.4 117.973 145.85 117.973 143.85C117.973 141.85 117.59 140.317 116.823 139.25C116.057 138.15 114.973 137.6 113.573 137.6C112.173 137.6 111.09 138.15 110.323 139.25C109.557 140.317 109.173 141.85 109.173 143.85ZM154.57 151.6C154.404 153.167 153.937 154.367 153.17 155.2C152.437 156.033 151.354 156.45 149.92 156.45C148.854 156.45 147.904 156.2 147.07 155.7C146.237 155.167 145.337 154.283 144.37 153.05L139.42 146.85V155.95C139.054 156.017 138.504 156.1 137.77 156.2C137.07 156.333 136.354 156.4 135.62 156.4C134.887 156.4 134.22 156.35 133.62 156.25C133.054 156.15 132.57 155.95 132.17 155.65C131.77 155.35 131.454 154.95 131.22 154.45C131.02 153.917 130.92 153.233 130.92 152.4V123.45C131.287 123.35 131.82 123.25 132.52 123.15C133.254 123.017 133.987 122.95 134.72 122.95C135.454 122.95 136.104 123 136.67 123.1C137.27 123.2 137.77 123.4 138.17 123.7C138.57 124 138.87 124.417 139.07 124.95C139.304 125.45 139.42 126.117 139.42 126.95V140.15L148.02 131.35C149.754 131.35 151.137 131.733 152.17 132.5C153.237 133.267 153.77 134.233 153.77 135.4C153.77 135.9 153.687 136.367 153.52 136.8C153.354 137.2 153.087 137.617 152.72 138.05C152.387 138.483 151.937 138.95 151.37 139.45C150.837 139.917 150.204 140.467 149.47 141.1L146.57 143.6L154.57 151.6ZM167.955 155.8C167.588 155.9 167.005 156 166.205 156.1C165.438 156.2 164.671 156.25 163.905 156.25C163.138 156.25 162.455 156.183 161.855 156.05C161.288 155.95 160.805 155.75 160.405 155.45C160.005 155.15 159.705 154.733 159.505 154.2C159.305 153.667 159.205 152.967 159.205 152.1V125.7C159.571 125.633 160.155 125.55 160.955 125.45C161.755 125.317 162.521 125.25 163.255 125.25C164.021 125.25 164.688 125.317 165.255 125.45C165.855 125.55 166.355 125.75 166.755 126.05C167.155 126.35 167.455 126.767 167.655 127.3C167.855 127.833 167.955 128.533 167.955 129.4V155.8ZM182.289 147.65C182.289 148.517 182.556 149.133 183.089 149.5C183.656 149.867 184.439 150.05 185.439 150.05C185.939 150.05 186.456 150.017 186.989 149.95C187.522 149.85 187.989 149.733 188.389 149.6C188.689 149.967 188.939 150.383 189.139 150.85C189.372 151.283 189.489 151.817 189.489 152.45C189.489 153.717 189.006 154.75 188.039 155.55C187.106 156.35 185.439 156.75 183.039 156.75C180.106 156.75 177.839 156.083 176.239 154.75C174.672 153.417 173.889 151.25 173.889 148.25V126.85C174.256 126.75 174.772 126.65 175.439 126.55C176.139 126.417 176.872 126.35 177.639 126.35C179.106 126.35 180.239 126.617 181.039 127.15C181.872 127.65 182.289 128.733 182.289 130.4V133.6H188.839C189.039 133.967 189.222 134.433 189.389 135C189.589 135.533 189.689 136.133 189.689 136.8C189.689 137.967 189.422 138.817 188.889 139.35C188.389 139.85 187.706 140.1 186.839 140.1H182.289V147.65Z" fill="#84C3FA"/>
<path d="M16.4526 185.098C16.4526 181.51 19.2026 178.52 22.7786 178.22L200.88 163.304C209.262 162.602 216.453 169.216 216.453 177.627C216.453 185.565 210.018 192 202.08 192H23.3546C19.5427 192 16.4526 188.91 16.4526 185.098Z" fill="#FF92D0"/>
<path d="M16 208C16 202.477 20.4772 198 26 198H206C211.523 198 216 202.477 216 208C216 219.046 207.046 228 196 228H36C24.9543 228 16 219.046 16 208Z" fill="#CF9CFF"/>
<path d="M31.9054 206L8.95825 207.485C8.08788 207.541 7.2478 207.826 6.52287 208.311V208.311C3.4957 210.336 3.61425 214.825 6.74408 216.688L7.79778 217.315C8.59834 217.791 9.50298 218.065 10.4333 218.113L31.9054 219.218" stroke="#CF9CFF" stroke-width="6"/>
<path d="M201 206L223.947 207.485C224.817 207.541 225.657 207.826 226.382 208.311V208.311C229.41 210.336 229.291 214.825 226.161 216.688L225.107 217.315C224.307 217.791 223.402 218.065 222.472 218.113L201 219.218" stroke="#CF9CFF" stroke-width="6"/>
</svg>
