<svg width="20" height="20" viewBox="0 0 20 20" fill="none" xmlns="http://www.w3.org/2000/svg">
<path d="M9.99935 1.6665C8.45225 1.6665 6.96852 2.28109 5.87456 3.37505C4.7806 4.46901 4.16602 5.95274 4.16602 7.49984C4.16602 9.48317 5.15768 11.2248 6.66602 12.2832V14.1665C6.66602 14.3875 6.75381 14.5995 6.91009 14.7558C7.06637 14.912 7.27834 14.9998 7.49935 14.9998H12.4993C12.7204 14.9998 12.9323 14.912 13.0886 14.7558C13.2449 14.5995 13.3327 14.3875 13.3327 14.1665V12.2832C14.841 11.2248 15.8327 9.48317 15.8327 7.49984C15.8327 5.95274 15.2181 4.46901 14.1241 3.37505C13.0302 2.28109 11.5464 1.6665 9.99935 1.6665ZM7.49935 17.4998C7.49935 17.7208 7.58715 17.9328 7.74343 18.0891C7.89971 18.2454 8.11167 18.3332 8.33268 18.3332H11.666C11.887 18.3332 12.099 18.2454 12.2553 18.0891C12.4116 17.9328 12.4993 17.7208 12.4993 17.4998V16.6665H7.49935V17.4998Z" fill="#575757"/>
</svg>
